<svg xmlns="http://www.w3.org/2000/svg" width="27" height="27" viewBox="0 0 36 36">
  <g id="Group_4" data-name="Group 4" transform="translate(-83 -162)">
    <path id="Subtraction_1" data-name="Subtraction 1" d="M-841-324a17.882,17.882,0,0,1-12.728-5.272A17.882,17.882,0,0,1-859-342a17.882,17.882,0,0,1,5.272-12.728A17.882,17.882,0,0,1-841-360a17.883,17.883,0,0,1,12.728,5.272A17.882,17.882,0,0,1-823-342a17.882,17.882,0,0,1-5.272,12.728A17.882,17.882,0,0,1-841-324Zm4.2-18.041c2.446,0,2.446,2.319,2.446,4.012v7.375h4.7l0-8.323c0-3.744-.683-7.208-5.637-7.208-.061,0-.122,0-.184,0a4.962,4.962,0,0,0-4.269,2.45h-.066v-2.067h-4.512v15.149h4.7v-7.5C-839.62-340.077-839.285-342.041-836.8-342.041Zm-15.173-3.764v15.151h4.705l0-15.151Zm2.325-7.543a2.721,2.721,0,0,0-1.932.811,2.719,2.719,0,0,0-.793,1.94,2.745,2.745,0,0,0,2.74,2.726h.012a2.754,2.754,0,0,0,2.724-2.75,2.744,2.744,0,0,0-2.739-2.726h-.012Z" transform="translate(942 522)" fill="#000"/>
  </g>
</svg>
