<svg xmlns="http://www.w3.org/2000/svg" width="163.25" height="134.777" viewBox="0 0 163.25 134.777">
  <g id="LOGO" transform="translate(-754.04 335.383) rotate(-45)">
    <g id="Union_1" data-name="Union 1" transform="translate(720 341)">
      <path id="Subtraction_2" data-name="Subtraction 2" d="M-3729.975-1119.83a7.33,7.33,0,0,1-5.22-2.162,7.33,7.33,0,0,1-2.163-5.22v-60.4a12.766,12.766,0,0,0-12.751-12.753,12.767,12.767,0,0,0-12.752,12.753v60.4a7.333,7.333,0,0,1-2.161,5.22,7.339,7.339,0,0,1-5.221,2.162,7.335,7.335,0,0,1-5.22-2.162,7.334,7.334,0,0,1-2.162-5.22v-60.518a12.788,12.788,0,0,0-12.75-12.637,12.767,12.767,0,0,0-12.752,12.753v60.4a7.334,7.334,0,0,1-2.162,5.22,7.338,7.338,0,0,1-5.22,2.162,7.339,7.339,0,0,1-5.221-2.162,7.334,7.334,0,0,1-2.162-5.22v-60.4a27.353,27.353,0,0,1,2.161-10.71,27.424,27.424,0,0,1,5.9-8.747,27.416,27.416,0,0,1,8.746-5.9,27.346,27.346,0,0,1,10.71-2.161,27.335,27.335,0,0,1,10.709,2.161,27.368,27.368,0,0,1,7.632,4.843l1.792,1.606,1.792-1.606a27.368,27.368,0,0,1,7.632-4.843,27.333,27.333,0,0,1,10.709-2.161,27.336,27.336,0,0,1,10.71,2.161,27.415,27.415,0,0,1,8.748,5.9,27.422,27.422,0,0,1,5.9,8.747,27.348,27.348,0,0,1,2.16,10.71v60.4a7.333,7.333,0,0,1-2.162,5.22A7.334,7.334,0,0,1-3729.975-1119.83Z" transform="translate(3820.578 1217.815)" fill="#fff"/>
    </g>
    <g id="Union_2" data-name="Union 2" transform="translate(740.134 361.134)">
      <path id="Subtraction_1" data-name="Subtraction 1" d="M-3778.584-1119.83a27.334,27.334,0,0,1-10.71-2.161,27.4,27.4,0,0,1-7.632-4.843l-1.792-1.606-1.792,1.606a27.412,27.412,0,0,1-7.632,4.843,27.336,27.336,0,0,1-10.71,2.161,27.332,27.332,0,0,1-10.709-2.161,27.407,27.407,0,0,1-8.747-5.9,27.428,27.428,0,0,1-5.9-8.747,27.349,27.349,0,0,1-2.161-10.71v-60.4a7.335,7.335,0,0,1,2.163-5.22,7.335,7.335,0,0,1,5.22-2.162,7.332,7.332,0,0,1,5.219,2.162,7.334,7.334,0,0,1,2.163,5.22v60.4a12.766,12.766,0,0,0,12.751,12.752,12.788,12.788,0,0,0,12.751-12.636v-60.518a7.335,7.335,0,0,1,2.163-5.22,7.333,7.333,0,0,1,5.219-2.162,7.334,7.334,0,0,1,5.22,2.162,7.334,7.334,0,0,1,2.163,5.22v60.4a12.766,12.766,0,0,0,12.751,12.752,12.766,12.766,0,0,0,12.752-12.752v-60.4a7.338,7.338,0,0,1,2.162-5.22,7.338,7.338,0,0,1,5.22-2.162,7.334,7.334,0,0,1,5.22,2.162,7.335,7.335,0,0,1,2.163,5.22v60.4a27.334,27.334,0,0,1-2.161,10.71,27.418,27.418,0,0,1-5.9,8.747,27.407,27.407,0,0,1-8.747,5.9A27.328,27.328,0,0,1-3778.584-1119.83Z" transform="translate(3849.052 1217.815)" fill="#fff"/>
    </g>
  </g>
</svg>
